<?xml version="1.0" encoding="UTF-8" standalone="no"?>
<!-- Created with Inkscape (http://www.inkscape.org/) -->

<svg
   xmlns:dc="http://purl.org/dc/elements/1.1/"
   xmlns:cc="http://creativecommons.org/ns#"
   xmlns:rdf="http://www.w3.org/1999/02/22-rdf-syntax-ns#"
   xmlns:svg="http://www.w3.org/2000/svg"
   xmlns="http://www.w3.org/2000/svg"
   xmlns:sodipodi="http://sodipodi.sourceforge.net/DTD/sodipodi-0.dtd"
   xmlns:inkscape="http://www.inkscape.org/namespaces/inkscape"
   width="120"
   height="720"
   id="svg2"
   version="1.1"
   inkscape:version="0.48.2 r9819"
   sodipodi:docname="stickmen_vertical.svg">
  <defs
     id="defs4" />
  <sodipodi:namedview
     id="base"
     pagecolor="#ffffff"
     bordercolor="#666666"
     borderopacity="1.0"
     inkscape:pageopacity="0.0"
     inkscape:pageshadow="2"
     inkscape:zoom="1.979899"
     inkscape:cx="55.569376"
     inkscape:cy="200.48327"
     inkscape:document-units="px"
     inkscape:current-layer="g4178"
     showgrid="false"
     fit-margin-top="0"
     fit-margin-left="0"
     fit-margin-right="0"
     fit-margin-bottom="0"
     inkscape:window-width="1920"
     inkscape:window-height="1056"
     inkscape:window-x="0"
     inkscape:window-y="24"
     inkscape:window-maximized="1"
     showguides="true"
     inkscape:guide-bbox="true">
    <sodipodi:guide
       orientation="1,0"
       position="60,0"
       id="guide4242" />
    <sodipodi:guide
       orientation="0,1"
       position="107.07617,599.52554"
       id="guide4244" />
    <sodipodi:guide
       orientation="0,1"
       position="105.56094,479.31738"
       id="guide4246" />
    <sodipodi:guide
       orientation="0,1"
       position="121.72338,359.10923"
       id="guide4248" />
    <sodipodi:guide
       orientation="0,1"
       position="130.81475,239.91123"
       id="guide4250" />
    <sodipodi:guide
       orientation="0,1"
       position="137.88582,119.198"
       id="guide4252" />
  </sodipodi:namedview>
  <metadata
     id="metadata7">
    <rdf:RDF>
      <cc:Work
         rdf:about="">
        <dc:format>image/svg+xml</dc:format>
        <dc:type
           rdf:resource="http://purl.org/dc/dcmitype/StillImage" />
        <dc:title></dc:title>
      </cc:Work>
    </rdf:RDF>
  </metadata>
  <g
     inkscape:label="1"
     inkscape:groupmode="layer"
     id="layer1"
     transform="translate(-393.33271,-140.30075)"
     style="display:inline">
    <path
       style="fill:#000000"
       d="m 451.15278,273.22679 c -0.48866,-1.02718 2.32544,-46.6973 3.35936,-54.51917 1.31668,-9.96106 1.2767,-37.42181 -0.048,-33 -1.12195,3.74491 -5.62041,21.38959 -7.07751,27.76071 -0.83386,3.64607 -1.38323,4.51635 -2.34636,3.71702 -1.00577,-0.83471 -0.96016,-1.98822 0.22774,-5.76071 0.81693,-2.59436 3.04151,-10.77973 4.94352,-18.18972 1.90201,-7.40998 3.94203,-13.77172 4.53337,-14.13719 0.59134,-0.36546 1.23561,-2.80761 1.43171,-5.42699 0.55604,-7.42738 1.39049,-6.56969 1.39049,1.42923 0,4.20492 0.23244,6.37869 0.86777,6.33468 1.80721,-0.12519 1.8973,0.65605 3.55256,10.83486 0.84414,5.19096 2.46241,12.7581 3.59615,16.81587 1.13374,4.05776 1.79436,7.64473 1.46806,7.97104 -1.04703,1.04702 -2.40012,-2.16807 -3.9345,-9.3488 -0.82267,-3.85 -2.4699,-11.02931 -3.43636,-16 l -2.00373,-8.30552 -0.0234,9.78937 c -0.0138,5.7663 -0.96691,21.06612 -2.04292,34 -1.07602,12.93388 -2.10112,28.04657 -2.27802,33.58374 l -0.32164,10.06759 4.02802,0.31732 c 2.21541,0.17453 4.81552,0.35304 5.77802,0.3967 0.9625,0.0437 1.75,0.68712 1.75,1.42992 0,1.02725 -1.57603,1.27977 -6.58364,1.05489 -3.62101,-0.16262 -6.51443,-0.81484 -6.83063,-0.81484 z m 0.64972,-107.02318 c -2.81738,-1.17235 -4.51969,-5.42535 -3.68772,-9.21329 0.78281,-3.56412 4.87383,-7.7827 7.54738,-7.7827 3.71044,0 7.70822,2.82808 8.39078,5.93574 0.57922,2.63719 -0.20234,7.21687 -3.41685,10.09372 -3.21451,2.87686 -7.07225,1.69944 -8.83359,0.96653 z m 7.73911,-2.97055 c 2.25185,-2.25186 3.51603,-6.3046 2.66135,-8.53186 -0.98749,-2.57335 -5.26956,-3.98153 -8.13591,-2.67553 -1.86372,0.84916 -3.63642,2.47627 -3.63642,4.72872 -0.53529,2.99539 -0.51275,3.10112 1.13642,5.45323 2.47517,3.47605 5.17658,3.82342 7.97456,1.02544 z m 4.64151,-2.15937 c 0,-0.55 2.05893,-0.86607 2.88393,-0.86607 0.825,0 1.5,0.45 1.5,1 0,0.55 -0.675,1 -1.5,1 -0.825,0 -2.88393,-0.58393 -2.88393,-1.13393 z"
       inkscape:connector-curvature="0"
       sodipodi:nodetypes="ccsssssscssssscsscssscscssczsssszcsssccsssss"
       id="path3136" />
  </g>
  <g
     style="display:inline"
     transform="translate(-393.33271,-140.30075)"
     id="g4162"
     inkscape:groupmode="layer"
     inkscape:label="2">
    <path
       id="path4164"
       sodipodi:nodetypes="scssssscsssssscsssssssscsssscsccsccssczcscssssc"
       inkscape:connector-curvature="0"
       d="m 451.00651,431.57037 -5.5,-0.587 0.11055,-4.5 c 0.1228,-4.99862 2.49413,-19.74595 5.38671,-33.5 1.04103,-4.95 2.08905,-10.35 2.32894,-12 0.23989,-1.65 1.21155,-6.825 2.15925,-11.5 1.30994,-6.46194 1.60859,-11.61703 1.24559,-21.5 -0.26826,-7.30343 -0.77803,-14.72084 -1.33913,-16.96976 -2.14591,-0.0168 -1.24047,0.0903 -2.87473,-0.1106 -4.32872,-0.53212 -6.55289,-2.68874 -6.55289,-8.70411 0,-4.36113 1.0005,-5.12476 2.70142,-6.82569 1.58742,-1.58741 1.95535,-2.72969 1.3779,-4.27778 -0.4333,-1.16163 -1.35885,-3.91206 -2.05676,-6.11206 -0.69791,-2.2 -2.57549,-6.86748 -4.17238,-10.37218 -1.5969,-3.5047 -2.65843,-6.6172 -2.35896,-6.91666 0.69893,-0.69893 0.53975,-0.91554 5.35608,7.28884 2.26012,3.85 4.73879,9.46661 5.50816,12.48136 1.22474,4.79915 1.76122,5.55547 4.31047,6.07685 1.60139,0.32752 3.8421,1.90568 5.49956,2.29117 2.66619,0.62009 2.21198,0.82767 3.85152,0.17315 1.84119,-0.73503 3.0187,-1.96516 3.0187,-0.14498 0,2.3144 -2.30226,2.7803 -4.36845,2.73162 -1.38295,-0.0326 -1.51739,-0.29827 -1.88174,3.41814 -0.41624,4.24569 -4.88155,8.33709 -4.88155,8.33709 0,0 0.66378,1.84258 0.97731,16.49067 0.35582,16.62386 0.39853,16.26954 -4.89944,40.64493 -2.34859,10.80561 -6.89372,40.18928 -6.35856,41.10725 0.19471,0.33399 2.61979,0.8756 5.38906,1.20358 5.56135,0.65866 10.57808,2.73732 6.02337,2.49576 -1.375,-0.0729 -4.975,-0.39674 -8,-0.71959 z m 2.98282,-106.80832 c -0.40641,-2.906 -1.8447,-5.32686 -2.49272,-8.48488 -0.21611,-0.97945 -2.35129,0.33402 -2.79784,2.00448 -3.28418,12.28562 6.39096,10.6505 6.39096,10.6505 0,0 -0.58422,-2.24054 -1.1004,-4.1701 z m 7.10296,-2.03859 c 1.08359,-3.28333 0.0976,-4.29569 -1.9525,-5.95571 -1.23624,-1.00105 -4.83224,-1.59688 -4.83224,-1.59688 0,0 -0.15206,0.87012 0.97033,4.41809 1.12238,3.54797 2.06141,8.65114 2.06141,8.65114 0,0 3.09955,-3.53668 3.753,-5.51664 z m -9.40771,-22.52928 c -4.48382,-13.1523 -4.46335,-13.06465 -3.20215,-13.71081 0.53675,-0.275 1.39543,0.85 1.90816,2.5 0.51274,1.65 2.02391,5.87133 3.35817,9.38074 2.75327,7.24173 3.94272,13.13809 2.63859,13.08007 -0.48446,-0.0216 -2.60071,-5.08406 -4.70277,-11.25 z"
       style="fill:#000000" />
  </g>
  <g
     inkscape:label="3"
     inkscape:groupmode="layer"
     id="g4166"
     transform="translate(-393.33271,-140.30075)"
     style="display:inline">
    <path
       style="fill:#000000"
       d="m 448.45118,534.07432 c -1.58484,-0.4291 -4.17234,-0.52203 -5.75,-0.20649 -2.84453,0.5689 -2.86844,0.53301 -2.86445,-4.30131 0.002,-2.68125 0.69583,-9.14087 1.54138,-14.3547 2.8537,-17.59665 2.49346,-20.86408 -5.09933,-46.2515 -1.37052,-3.98628 -2.44844,-5.11958 0.66993,-7.71673 2.90723,-2.42131 6.56182,-2.56491 11.81214,-0.46415 7.09671,2.83954 13.27224,13.39239 14.95862,25.56155 0.7855,5.66822 1.53794,7.68901 3.56178,9.56562 1.97028,1.82695 2.20688,3.96645 1.75767,6.04189 -0.91402,4.22291 -2.36923,5.78051 -4.24724,6.75604 -0.90808,0.4717 -2.17155,0.51497 -2.17155,0.51497 0,0 -0.87505,7.85949 -1.36347,13.24933 l -0.68713,7.58268 3.63159,0.68129 c 5.46651,1.02552 4.55572,2.85722 -1.03938,2.09033 -2.56903,-0.35212 -4.86221,-0.83146 -5.09594,-1.0652 -0.23373,-0.23373 0.0357,-5.21001 0.71844,-11.04492 l 1.38895,-11.86995 -2.79301,-1.7775 c -1.83592,-1.1684 -2.54747,-3.66797 -2.54747,-4.45078 0,-0.7828 -0.675,-1.42327 -1.5,-1.42327 -0.825,0 -1.5,-0.45 -1.5,-1 0,-0.55 0.91114,-1 2.02475,-1 1.25972,0 2.39779,-0.98116 3.01204,-2.59677 0.54301,-1.42822 1.93256,-2.84396 3.08789,-3.14609 1.93293,-0.50547 2.04782,-1.01576 1.43944,-6.39319 -1.25666,-11.10741 -5.67973,-19.08928 -12.93388,-23.34049 -5.47887,-3.21083 -8.34732,-3.23851 -9.77988,-0.0944 -0.90486,1.98595 -0.53948,4.22072 2.00284,12.25 5.4419,17.18687 5.52154,18.14558 3.08567,37.14327 -0.51638,4.0273 -0.93855,9.6523 -0.93816,12.5 6.6e-4,4.84088 0.16611,5.1872 2.54391,5.32459 4.63355,0.26773 9.45538,1.43131 9.45538,2.28173 0,1.32358 -3.23214,1.80682 -6.38153,0.95412 z m 12.92727,-33.05536 c 0.30106,-2.36234 0.29637,-5.05065 0.29637,-5.05065 0,0 -4.6897,1.21839 -4.25762,5.74914 0.22711,2.38142 3.2633,4.19592 3.2633,4.19592 0,0 0.4144,-2.66948 0.69795,-4.89441 z m 5.51283,2.39009 c 2.35532,-4.65263 -2.68765,-7.18722 -2.68765,-7.18722 0,0 0.21169,0.80937 -0.41502,5.71969 -0.28555,2.23738 -0.77881,4.19166 -0.77881,4.19166 2.65424,-1.06257 3.07756,-1.13609 3.88148,-2.72413 z"
       inkscape:connector-curvature="0"
       sodipodi:nodetypes="cscsccssssscscsscscsssssssssssssssccscccsscccs"
       id="path4168" />
  </g>
  <g
     style="display:inline"
     transform="translate(-393.33271,-140.30075)"
     id="g4170"
     inkscape:groupmode="layer"
     inkscape:label="4">
    <path
       id="path4172"
       sodipodi:nodetypes="cssssssczssczccssczsssssssssccsssssssssscssccssssssssss"
       inkscape:connector-curvature="0"
       d="m 482.33827,669.43203 c -1.26808,-0.80203 -1.1822,-1.84378 0.63757,-7.73469 3.29816,-10.67665 4.54959,-15.94312 4.1743,-17.5669 -0.28066,-1.2143 -2.34519,-0.71501 -10.8771,2.63054 -9.27711,3.63776 -11.24127,4.85288 -16.5,10.20759 -9.54121,9.71538 -7.87581,9.2336 -33.96931,9.82686 -13.27415,0.3018 -22.40329,0.15376 -21.58887,-0.35009 1.50727,-0.9325 22.47457,-2.40519 32.8388,-2.30652 4.0358,-0.0596 4.79898,-0.0641 9.40437,-1.22559 4.60538,-1.16153 13.85985,-7.2443 18.22522,-16.77897 4.6243,-10.10025 5.96448,-23.71899 3.52796,-35.85125 l -1.09253,-5.44008 c 0,0 -2.42022,0.35677 -4.58938,-0.61361 -2.16916,-0.97037 -4.36521,-2.80325 -5.64551,-6.77437 -0.63348,-3.90114 -0.92105,-2.69273 0.65863,-7.72555 1.85134,-3.15763 1.85009,-3.16785 -1.59034,-13 -1.89373,-5.41193 -4.38931,-12.21904 -5.54575,-15.1269 -2.35574,-5.92354 -2.55285,-7.21298 -1.1026,-7.21298 1.2548,0.71539 1.33398,2.02972 1.83835,3.16667 0.50437,1.13695 2.74081,5.97984 5.06602,12.88113 4.94315,14.67139 5.22774,15.22247 7.42558,14.37908 2.03252,-0.77995 2.03836,-0.99659 0.20567,-7.62809 -6.39743,-23.14871 -6.73153,-25.0362 -4.03562,-22.79879 0.825,0.68469 1.5,2.46827 1.5,3.96351 0,1.49525 0.69576,4.92765 1.54613,7.62756 0.85036,2.69991 2.37745,7.95987 3.39351,11.68881 1.13735,4.17405 2.84918,7.78167 4.45387,9.38636 1.43357,1.43357 2.60649,2.96063 2.60649,3.39348 0,0.43284 1.37805,0.0995 3.06233,-0.7407 1.68428,-0.84023 3.32341,-1.26662 3.6425,-0.94752 0.9163,0.91629 -1.56489,3.37656 -4.02898,3.99501 -1.64498,0.41286 -2.56755,1.77951 -3.46406,5.13144 -0.67207,2.5128 -2.12007,4.46764 -2.65977,5.12046 -0.7258,0.87793 -1.05813,1.04771 -0.38034,3.21667 0.47034,1.5051 1.28587,7.83992 1.565,14.16492 0.43893,9.94592 0.21178,12.44596 -1.68085,18.5 -1.2036,3.85 -2.41034,7.53038 -2.68163,8.17861 -0.2713,0.64824 4.59228,-0.81426 10.80797,-3.25 6.21568,-2.43573 11.60971,-4.42861 11.98672,-4.42861 1.32702,0 -2.15298,17.63282 -4.66793,23.65194 -0.83997,2.01033 -1.33347,3.84888 -1.09667,4.08568 0.23679,0.2368 2.2677,0.67695 4.51312,0.97813 2.24543,0.30117 4.08259,0.93834 4.08259,1.41592 0,1.15866 -8.10722,1.08613 -9.96546,-0.0892 z m -18.49528,-68.79251 c -0.3711,-0.9625 -1.18758,-3.6625 -1.8144,-6 -1.28945,-4.80855 -2.22934,-5.36045 -3.11556,-1.82946 -0.90891,3.6214 1.98487,9.57946 4.65268,9.57946 0.5236,0 0.64837,-0.7875 0.27728,-1.75 z m 5.8875,-1.40364 c 3.1413,-6.2969 0.99497,-11.84636 -4.58175,-11.84636 -1.56475,0 -2.84501,0.15455 -2.84501,0.34345 0,0.30643 3.31166,10.21794 4.47944,13.40655 0.69244,1.89071 1.22655,1.54573 2.94732,-1.90364 z"
       style="fill:#000000" />
  </g>
  <g
     inkscape:label="5"
     inkscape:groupmode="layer"
     id="g4174"
     transform="translate(-393.33271,-140.30075)"
     style="display:inline">
    <path
       style="fill:#000000"
       d="m 486.37312,763.55873 c -3.95781,-2.04789 -7.94831,-4.29856 -12.86258,-11.01089 -3.743,-5.11251 -4.36352,-5.57061 -5.79315,-4.27681 -2.34987,2.1266 -7.48561,0.74701 -10.48388,-2.81622 -2.34726,-2.78957 -2.63913,-2.88243 -4.30916,-1.37108 -1.74994,1.58367 -4.13387,2.18903 -4.13387,1.04972 0,-0.77363 2.15765,-2.68829 4.54223,-4.0307 1.07677,-0.60617 2.10972,-2.18117 2.29543,-3.5 0.18572,-1.31883 1.21539,-3.34515 2.28816,-4.50294 1.9452,-2.09935 1.93736,-2.12782 -2.89075,-10.5 -2.66269,-4.61721 -5.10594,-9.06993 -5.42945,-9.89493 -0.32351,-0.825 -2.85613,-4.55702 -5.62804,-8.29338 -2.77191,-3.73636 -5.23422,-7.33636 -5.4718,-8 -0.23759,-0.66364 -0.6285,-0.98162 -0.86871,-0.70662 -0.79309,0.90797 -7.68717,19.41238 -8.94153,24 -1.43647,5.25361 -4.20096,9.24214 -11.84896,17.09536 -6.28781,6.45652 -8.20107,8.68459 -10.59529,12.33864 -1.64125,2.50485 -1.62495,2.56636 0.6837,2.58131 2.40471,0.0156 6.19333,1.83567 4.36501,2.097 -0.55,0.0786 -1.9,0.24405 -3,0.36764 -1.1,0.12359 -2.95921,0.52957 -4.13158,0.90218 -1.45509,0.46247 -2.31787,0.19197 -2.71861,-0.85233 -0.57615,-1.50143 0.13414,-4.54388 1.291,-5.5298 0.32267,-0.275 2.6055,-2.975 5.07294,-6 2.46744,-3.025 4.82375,-5.65 5.23625,-5.83333 1.64329,-2.48307 3.68971,-5.14474 5.5,-7.38187 3.62291,-4.32747 5.6065,-8.10346 7.76668,-14.7848 0.97803,-3.025 2.04938,-5.725 2.38078,-6 0.3314,-0.275 1.72754,-3.83699 3.10254,-7.91552 3.65624,-10.84517 5.92763,-12.58678 8.4724,-6.49628 0.82459,1.97351 2.8942,5.34947 4.59915,7.50214 2.86624,3.61892 10.04788,15.24869 14.91913,24.15966 1.58895,2.90665 2.66385,3.75344 4.77964,3.76531 5.17345,0.029 7.59598,3.77854 6.88007,10.64877 -0.33635,3.22778 -0.35565,3.00263 0.59037,3.49516 1.7853,0.92949 2.68236,1.82368 7.31803,5.35087 4.02718,3.0642 4.24457,4.43701 7.53138,6.72576 3.7737,2.62779 4.90983,2.59256 4.90983,3.00828 0,0.98767 -0.79839,0.95388 -5.0066,-0.21192 -1.61959,-0.44867 -11.32695,-8.41288 -11.62192,-8.46628 0.21012,0.24652 9.20129,8.3091 10.12852,9.00971 3.03957,2.14288 6.60276,3.56859 5.39069,4.54095 -1.46139,0.91265 -2.05121,0.905 -4.30805,-0.26276 z m -22.27778,-25.06631 -2.71405,-4.9808 -2.07853,2.38408 c -1.65294,1.89592 -2.18069,4.55801 -1.78775,6.60932 5.06029,7.19405 10.42756,2.67362 10.42756,2.67362 0,0 -1.24255,-1.90613 -3.84723,-6.68622 z m 5.16115,-0.96405 c -0.41156,-2.13704 -2.47562,-4.14721 -3.35522,-3.26761 -0.61647,0.61647 2.04451,5.44412 3.00077,5.44412 0.42548,0 0.58498,-0.97943 0.35445,-2.17651 z"
       inkscape:connector-curvature="0"
       sodipodi:nodetypes="sssssssssssscssssccssscsccssssssssssssscccsscsccsssss"
       id="path4176" />
  </g>
  <g
     style="display:inline"
     transform="translate(-393.33271,-140.30075)"
     id="g4178"
     inkscape:groupmode="layer"
     inkscape:label="6">
    <path
       id="path4180"
       sodipodi:nodetypes="cccssscssssssccscccccscscssczcsacsccacscszcsccssss"
       inkscape:connector-curvature="0"
       d="m 483.16705,849.09043 c -2.5818,-2.03089 -2.692,-2.48146 -2.3848,-9.75 l 0.322,-7.62072 -15.5,-0.18285 c -8.525,-0.10057 -21.8,-0.67616 -29.49996,-1.27909 -7.7,-0.60294 -17.67366,-1.37225 -22.16367,-1.70959 l -8.16366,-0.61335 -1.04885,3.79859 c -1.1417,4.13485 -0.78815,5.48629 1.4352,5.48629 0.79254,0 1.44098,0.39754 1.44098,0.88342 0,0.99827 -4.67054,2.11271 -5.4765,1.30675 -0.72159,-0.7216 -0.47596,-8.14364 0.37034,-11.19017 0.87316,-3.1432 2.61538,-3.27548 19.10616,-1.45068 15.64799,1.73153 57.46626,2.37684 58.93806,0.90949 0.9594,-0.95655 2.4814,-6.79894 3.5918,-13.78753 0.5413,-3.40707 1.2473,-4.67128 2.6086,-4.67128 0.5787,0 0.7844,1.19039 0.4752,2.75 -0.2999,1.5125 -0.8045,4.55 -1.1214,6.75 l -0.576,4 2.1263,-3.86801 c 1.1695,-2.12741 2.354,-6.17741 2.6322,-9 0.5025,-5.09643 0.4798,-5.14585 -3.2669,-7.13199 -4.0842,-2.16505 -6.0036,-5.99033 -5.004,-9.97299 0.9393,-3.74262 3.0545,-5.1975 8.6322,-5.93741 6.2268,-0.82601 7.8074,2.57712 9.6976,6.00152 0.4599,2.09407 2.0202,2.40888 3.3458,2.40888 1.0563,0 1.9205,0.45 1.9205,1 0,0.55 -0.8768,1 -1.9484,1 -4.7363,0.8257 -6.6913,5.76364 -8.0579,7.16877 -1.3666,1.40513 -1.5059,3.25949 -2.1165,6.83333 -0.6107,3.57385 -1.5078,6.9254 -1.9937,7.4479 -0.4859,0.5225 -1.9355,4.12427 -2.0515,6.34359 -0.1463,2.79779 0.8824,-0.15464 1.7382,8.22314 0.6338,6.43209 0.8706,6.98327 2.9999,6.98327 1.2715,0 2.5602,0.402 2.8639,0.89333 0.685,1.1083 -3.749,2.3068 -5.7266,1.5479 -1.4171,-0.54377 -1.3809,-8.67416 -2.7407,-12.8308 -0.296,-0.90474 -1.1694,-2.60535 -1.1694,-2.60535 l -1.0534,1.00792 c -1.1427,1.09336 -2.0002,2.99396 -2.4629,2.60485 -0.7042,2.17468 -0.1991,7.44019 -0.4463,10.41372 -0.1575,1.89468 -0.2743,4.08544 1.0038,5.46343 1.2781,1.37799 3.1309,2.45756 5.2331,2.505 1.0607,0 1.9286,0.45 1.9286,1 0,1.80487 -5.6722,1.04567 -8.4372,-1.12928 z m 13.6046,-50.59131 c 2.0018,-3.87106 -0.7431,-9.35769 -4.0355,-9.33553 -3.5207,0.0237 -7.9206,2.51099 -7.9206,5.82557 0,6.20601 9.3079,8.631 11.9561,3.50996 z"
       style="fill:#000000" />
  </g>
</svg>
